<svg xmlns="http://www.w3.org/2000/svg" viewBox="0 0 192 192" width="192" height="192">
  <defs>
    <linearGradient id="bgGrad192" x1="0%" y1="0%" x2="100%" y2="100%">
      <stop offset="0%" stop-color="#0b1325" />
      <stop offset="50%" stop-color="#111c38" />
      <stop offset="100%" stop-color="#070c18" />
    </linearGradient>
    <linearGradient id="primaryGrad192" x1="0%" y1="0%" x2="100%" y2="100%">
      <stop offset="0%" stop-color="#8b5cf6" />
      <stop offset="50%" stop-color="#6366f1" />
      <stop offset="100%" stop-color="#4f46e5" />
    </linearGradient>
    <linearGradient id="accentGrad192" x1="0%" y1="0%" x2="100%" y2="100%">
      <stop offset="0%" stop-color="#38bdf8" />
      <stop offset="100%" stop-color="#818cf8" />
    </linearGradient>
    <filter id="glow192" x="-20%" y="-20%" width="140%" height="140%">
      <feGaussianBlur stdDeviation="8" result="blur" />
      <feComposite in="SourceGraphic" in2="blur" operator="over" />
    </filter>
  </defs>

  <!-- Background Squircle Card -->
  <rect width="192" height="192" rx="42" fill="url(#bgGrad192)" />
  <rect width="190" height="190" x="1" y="1" rx="41" fill="none" stroke="rgba(139, 92, 246, 0.35)" stroke-width="1.5" />

  <!-- Glowing Aura -->
  <circle cx="96" cy="96" r="54" fill="#6366f1" opacity="0.25" filter="url(#glow192)" />

  <!-- Center Geometric "B" Emblem -->
  <g transform="translate(40, 32) scale(2.35)">
    <path fill="url(#primaryGrad192)" d="M25.946 44.938c-.664.845-2.021.375-2.021-.698V33.937a2.26 2.26 0 0 0-2.262-2.262H10.287c-.92 0-1.456-1.04-.92-1.788l7.48-10.471c1.07-1.497 0-3.578-1.842-3.578H1.237c-.92 0-1.456-1.04-.92-1.788L10.013.474c.214-.297.556-.474.92-.474h28.894c.92 0 1.456 1.04.92 1.788l-7.48 10.471c-1.07 1.498 0 3.579 1.842 3.579h11.377c.943 0 1.473 1.088.89 1.83L25.947 44.94z" />
    <path fill="url(#accentGrad192)" opacity="0.85" d="M10.013.474c.214-.297.556-.474.92-.474h28.894c.92 0 1.456 1.04.92 1.788l-7.48 10.471c-1.07 1.498 0 3.579 1.842 3.579H16.89L10.013.474z" />
  </g>
</svg>
